<?xml version="1.0" encoding="UTF-8" standalone="no"?>
<!DOCTYPE svg PUBLIC "-//W3C//DTD SVG 1.1//EN"
 "http://www.w3.org/Graphics/SVG/1.1/DTD/svg11.dtd">
<!-- Generated by graphviz version 2.47.0 (20210316.0004)
 -->
<!-- Title: dbml Pages: 1 -->
<svg width="1801pt" height="3379pt"
 viewBox="0.00 0.00 1801.10 3378.77" xmlns="http://www.w3.org/2000/svg" xmlns:xlink="http://www.w3.org/1999/xlink">
<g id="graph0" class="graph" transform="scale(1 1) rotate(0) translate(4 3374.77)">
<title>dbml</title>
<!-- AutographRequest -->
<g id="AutographRequest" class="node">
<title>AutographRequest</title>
<ellipse fill="none" stroke="black" stroke-width="0" cx="319.61" cy="-2048.39" rx="294.73" ry="172.57"/>
<polygon fill="#1d71b8" stroke="transparent" points="113.61,-2108.39 113.61,-2168.39 526.61,-2168.39 526.61,-2108.39 113.61,-2108.39"/>
<polygon fill="none" stroke="#29235c" points="113.61,-2108.39 113.61,-2168.39 526.61,-2168.39 526.61,-2108.39 113.61,-2108.39"/>
<text text-anchor="start" x="124.48" y="-2129.59" font-family="Helvetica,sans-Serif" font-weight="bold" font-size="32.00" fill="#ffffff"> &#160;&#160;&#160;&#160;&#160;&#160;AutographRequest &#160;&#160;&#160;&#160;&#160;&#160;</text>
<polygon fill="#e7e2dd" stroke="transparent" points="113.61,-2048.39 113.61,-2108.39 526.61,-2108.39 526.61,-2048.39 113.61,-2048.39"/>
<polygon fill="none" stroke="#29235c" points="113.61,-2048.39 113.61,-2108.39 526.61,-2108.39 526.61,-2048.39 113.61,-2048.39"/>
<text text-anchor="start" x="124.61" y="-2069.59" font-family="Helvetica,sans-Serif" font-weight="bold" font-size="32.00" fill="#29235c">id</text>
<text text-anchor="start" x="149.5" y="-2069.59" font-family="Helvetica,sans-Serif" font-size="32.00" fill="#29235c"> &#160;&#160;&#160;</text>
<text text-anchor="start" x="373.39" y="-2069.59" font-family="Helvetica,sans-Serif" font-style="italic" font-size="32.00" fill="#29235c">INTEGER</text>
<polygon fill="#e7e2dd" stroke="transparent" points="113.61,-1988.39 113.61,-2048.39 526.61,-2048.39 526.61,-1988.39 113.61,-1988.39"/>
<polygon fill="none" stroke="#29235c" points="113.61,-1988.39 113.61,-2048.39 526.61,-2048.39 526.61,-1988.39 113.61,-1988.39"/>
<text text-anchor="start" x="124.61" y="-2008.59" font-family="Helvetica,sans-Serif" font-size="32.00" fill="#29235c">player_id &#160;&#160;&#160;</text>
<text text-anchor="start" x="373.39" y="-2009.59" font-family="Helvetica,sans-Serif" font-style="italic" font-size="32.00" fill="#29235c">INTEGER</text>
<polygon fill="#e7e2dd" stroke="transparent" points="113.61,-1928.39 113.61,-1988.39 526.61,-1988.39 526.61,-1928.39 113.61,-1928.39"/>
<polygon fill="none" stroke="#29235c" points="113.61,-1928.39 113.61,-1988.39 526.61,-1988.39 526.61,-1928.39 113.61,-1928.39"/>
<text text-anchor="start" x="124.61" y="-1948.59" font-family="Helvetica,sans-Serif" font-size="32.00" fill="#29235c">fan_id &#160;&#160;&#160;</text>
<text text-anchor="start" x="373.39" y="-1949.59" font-family="Helvetica,sans-Serif" font-style="italic" font-size="32.00" fill="#29235c">INTEGER</text>
<polygon fill="none" stroke="#29235c" stroke-width="2" points="112.11,-1927.39 112.11,-2169.39 527.11,-2169.39 527.11,-1927.39 112.11,-1927.39"/>
</g>
<!-- Fan -->
<g id="Fan" class="node">
<title>Fan</title>
<ellipse fill="none" stroke="black" stroke-width="0" cx="983.52" cy="-2450.39" rx="234.1" ry="214.92"/>
<polygon fill="#1d71b8" stroke="transparent" points="820.52,-2540.39 820.52,-2600.39 1147.52,-2600.39 1147.52,-2540.39 820.52,-2540.39"/>
<polygon fill="none" stroke="#29235c" points="820.52,-2540.39 820.52,-2600.39 1147.52,-2600.39 1147.52,-2540.39 820.52,-2540.39"/>
<text text-anchor="start" x="894.21" y="-2561.59" font-family="Helvetica,sans-Serif" font-weight="bold" font-size="32.00" fill="#ffffff"> &#160;&#160;&#160;&#160;&#160;&#160;Fan &#160;&#160;&#160;&#160;&#160;&#160;</text>
<polygon fill="#e7e2dd" stroke="transparent" points="820.52,-2480.39 820.52,-2540.39 1147.52,-2540.39 1147.52,-2480.39 820.52,-2480.39"/>
<polygon fill="none" stroke="#29235c" points="820.52,-2480.39 820.52,-2540.39 1147.52,-2540.39 1147.52,-2480.39 820.52,-2480.39"/>
<text text-anchor="start" x="831.52" y="-2501.59" font-family="Helvetica,sans-Serif" font-weight="bold" font-size="32.00" fill="#29235c">id</text>
<text text-anchor="start" x="856.41" y="-2501.59" font-family="Helvetica,sans-Serif" font-size="32.00" fill="#29235c"> &#160;&#160;&#160;</text>
<text text-anchor="start" x="994.31" y="-2501.59" font-family="Helvetica,sans-Serif" font-style="italic" font-size="32.00" fill="#29235c">INTEGER</text>
<polygon fill="#e7e2dd" stroke="transparent" points="820.52,-2420.39 820.52,-2480.39 1147.52,-2480.39 1147.52,-2420.39 820.52,-2420.39"/>
<polygon fill="none" stroke="#29235c" points="820.52,-2420.39 820.52,-2480.39 1147.52,-2480.39 1147.52,-2420.39 820.52,-2420.39"/>
<text text-anchor="start" x="831.52" y="-2440.59" font-family="Helvetica,sans-Serif" font-size="32.00" fill="#29235c">name &#160;&#160;&#160;</text>
<text text-anchor="start" x="980.1" y="-2441.59" font-family="Helvetica,sans-Serif" font-style="italic" font-size="32.00" fill="#29235c">VARCHAR</text>
<polygon fill="#e7e2dd" stroke="transparent" points="820.52,-2360.39 820.52,-2420.39 1147.52,-2420.39 1147.52,-2360.39 820.52,-2360.39"/>
<polygon fill="none" stroke="#29235c" points="820.52,-2360.39 820.52,-2420.39 1147.52,-2420.39 1147.52,-2360.39 820.52,-2360.39"/>
<text text-anchor="start" x="831.52" y="-2380.59" font-family="Helvetica,sans-Serif" font-size="32.00" fill="#29235c">email &#160;&#160;&#160;</text>
<text text-anchor="start" x="980.1" y="-2381.59" font-family="Helvetica,sans-Serif" font-style="italic" font-size="32.00" fill="#29235c">VARCHAR</text>
<polygon fill="#e7e2dd" stroke="transparent" points="820.52,-2300.39 820.52,-2360.39 1147.52,-2360.39 1147.52,-2300.39 820.52,-2300.39"/>
<polygon fill="none" stroke="#29235c" points="820.52,-2300.39 820.52,-2360.39 1147.52,-2360.39 1147.52,-2300.39 820.52,-2300.39"/>
<text text-anchor="start" x="831.33" y="-2320.59" font-family="Helvetica,sans-Serif" font-size="32.00" fill="#29235c">address &#160;&#160;&#160;</text>
<text text-anchor="start" x="980.31" y="-2321.59" font-family="Helvetica,sans-Serif" font-style="italic" font-size="32.00" fill="#29235c">VARCHAR</text>
<polygon fill="none" stroke="#29235c" stroke-width="2" points="819.02,-2299.39 819.02,-2601.39 1148.02,-2601.39 1148.02,-2299.39 819.02,-2299.39"/>
</g>
<!-- AutographRequest&#45;&gt;Fan -->
<!-- AutographRequest&#45;&gt;Fan -->
<g id="edge2" class="edge">
<title>AutographRequest:e&#45;&gt;Fan:w</title>
<path fill="none" stroke="#29235c" stroke-width="3" d="M527.61,-1958.39C801.61,-1958.39 548.59,-2496.46 809.21,-2510.12"/>
<polygon fill="#29235c" stroke="#29235c" stroke-width="3" points="809.44,-2513.63 819.52,-2510.39 809.62,-2506.63 809.44,-2513.63"/>
<text text-anchor="middle" x="825.75" y="-2519.99" font-family="Helvetica,sans-Serif" font-size="32.00" fill="#29235c">*</text>
<text text-anchor="middle" x="518.72" y="-1967.99" font-family="Helvetica,sans-Serif" font-size="32.00" fill="#29235c">1</text>
</g>
<!-- Player -->
<g id="Player" class="node">
<title>Player</title>
<ellipse fill="none" stroke="black" stroke-width="0" cx="983.52" cy="-1250.39" rx="251.96" ry="257.27"/>
<polygon fill="#1d71b8" stroke="transparent" points="807.52,-1370.39 807.52,-1430.39 1159.52,-1430.39 1159.52,-1370.39 807.52,-1370.39"/>
<polygon fill="none" stroke="#29235c" points="807.52,-1370.39 807.52,-1430.39 1159.52,-1430.39 1159.52,-1370.39 807.52,-1370.39"/>
<text text-anchor="start" x="875.94" y="-1391.59" font-family="Helvetica,sans-Serif" font-weight="bold" font-size="32.00" fill="#ffffff"> &#160;&#160;&#160;&#160;&#160;&#160;Player &#160;&#160;&#160;&#160;&#160;&#160;</text>
<polygon fill="#e7e2dd" stroke="transparent" points="807.52,-1310.39 807.52,-1370.39 1159.52,-1370.39 1159.52,-1310.39 807.52,-1310.39"/>
<polygon fill="none" stroke="#29235c" points="807.52,-1310.39 807.52,-1370.39 1159.52,-1370.39 1159.52,-1310.39 807.52,-1310.39"/>
<text text-anchor="start" x="818.52" y="-1331.59" font-family="Helvetica,sans-Serif" font-weight="bold" font-size="32.00" fill="#29235c">id</text>
<text text-anchor="start" x="843.41" y="-1331.59" font-family="Helvetica,sans-Serif" font-size="32.00" fill="#29235c"> &#160;&#160;&#160;</text>
<text text-anchor="start" x="1006.31" y="-1331.59" font-family="Helvetica,sans-Serif" font-style="italic" font-size="32.00" fill="#29235c">INTEGER</text>
<polygon fill="#e7e2dd" stroke="transparent" points="807.52,-1250.39 807.52,-1310.39 1159.52,-1310.39 1159.52,-1250.39 807.52,-1250.39"/>
<polygon fill="none" stroke="#29235c" points="807.52,-1250.39 807.52,-1310.39 1159.52,-1310.39 1159.52,-1250.39 807.52,-1250.39"/>
<text text-anchor="start" x="818.52" y="-1270.59" font-family="Helvetica,sans-Serif" font-size="32.00" fill="#29235c">name &#160;&#160;&#160;</text>
<text text-anchor="start" x="992.1" y="-1271.59" font-family="Helvetica,sans-Serif" font-style="italic" font-size="32.00" fill="#29235c">VARCHAR</text>
<polygon fill="#e7e2dd" stroke="transparent" points="807.52,-1190.39 807.52,-1250.39 1159.52,-1250.39 1159.52,-1190.39 807.52,-1190.39"/>
<polygon fill="none" stroke="#29235c" points="807.52,-1190.39 807.52,-1250.39 1159.52,-1250.39 1159.52,-1190.39 807.52,-1190.39"/>
<text text-anchor="start" x="818.52" y="-1210.59" font-family="Helvetica,sans-Serif" font-size="32.00" fill="#29235c">birthdate &#160;&#160;&#160;</text>
<text text-anchor="start" x="1063.19" y="-1211.59" font-family="Helvetica,sans-Serif" font-style="italic" font-size="32.00" fill="#29235c">DATE</text>
<polygon fill="#e7e2dd" stroke="transparent" points="807.52,-1130.39 807.52,-1190.39 1159.52,-1190.39 1159.52,-1130.39 807.52,-1130.39"/>
<polygon fill="none" stroke="#29235c" points="807.52,-1130.39 807.52,-1190.39 1159.52,-1190.39 1159.52,-1130.39 807.52,-1130.39"/>
<text text-anchor="start" x="818.27" y="-1150.59" font-family="Helvetica,sans-Serif" font-size="32.00" fill="#29235c">position_id &#160;&#160;&#160;</text>
<text text-anchor="start" x="1006.41" y="-1151.59" font-family="Helvetica,sans-Serif" font-style="italic" font-size="32.00" fill="#29235c">INTEGER</text>
<polygon fill="#e7e2dd" stroke="transparent" points="807.52,-1070.39 807.52,-1130.39 1159.52,-1130.39 1159.52,-1070.39 807.52,-1070.39"/>
<polygon fill="none" stroke="#29235c" points="807.52,-1070.39 807.52,-1130.39 1159.52,-1130.39 1159.52,-1070.39 807.52,-1070.39"/>
<text text-anchor="start" x="818.52" y="-1090.59" font-family="Helvetica,sans-Serif" font-size="32.00" fill="#29235c">team_id &#160;&#160;&#160;</text>
<text text-anchor="start" x="1006.31" y="-1091.59" font-family="Helvetica,sans-Serif" font-style="italic" font-size="32.00" fill="#29235c">INTEGER</text>
<polygon fill="none" stroke="#29235c" stroke-width="2" points="806.52,-1069.39 806.52,-1431.39 1160.52,-1431.39 1160.52,-1069.39 806.52,-1069.39"/>
</g>
<!-- AutographRequest&#45;&gt;Player -->
<!-- AutographRequest&#45;&gt;Player -->
<g id="edge4" class="edge">
<title>AutographRequest:e&#45;&gt;Player:w</title>
<path fill="none" stroke="#29235c" stroke-width="3" d="M527.61,-2018.39C849.95,-2018.39 488.62,-1354.88 796.26,-1340.62"/>
<polygon fill="#29235c" stroke="#29235c" stroke-width="3" points="796.61,-1344.11 806.52,-1340.39 796.45,-1337.11 796.61,-1344.11"/>
<text text-anchor="middle" x="812.75" y="-1349.99" font-family="Helvetica,sans-Serif" font-size="32.00" fill="#29235c">*</text>
<text text-anchor="middle" x="518.72" y="-2027.99" font-family="Helvetica,sans-Serif" font-size="32.00" fill="#29235c">1</text>
</g>
<!-- Position -->
<g id="Position" class="node">
<title>Position</title>
<ellipse fill="none" stroke="black" stroke-width="0" cx="1560.46" cy="-1390.39" rx="232.78" ry="214.92"/>
<polygon fill="#1d71b8" stroke="transparent" points="1398.46,-1480.39 1398.46,-1540.39 1723.46,-1540.39 1723.46,-1480.39 1398.46,-1480.39"/>
<polygon fill="none" stroke="#29235c" points="1398.46,-1480.39 1398.46,-1540.39 1723.46,-1540.39 1723.46,-1480.39 1398.46,-1480.39"/>
<text text-anchor="start" x="1441.81" y="-1501.59" font-family="Helvetica,sans-Serif" font-weight="bold" font-size="32.00" fill="#ffffff"> &#160;&#160;&#160;&#160;&#160;&#160;Position &#160;&#160;&#160;&#160;&#160;&#160;</text>
<polygon fill="#e7e2dd" stroke="transparent" points="1398.46,-1420.39 1398.46,-1480.39 1723.46,-1480.39 1723.46,-1420.39 1398.46,-1420.39"/>
<polygon fill="none" stroke="#29235c" points="1398.46,-1420.39 1398.46,-1480.39 1723.46,-1480.39 1723.46,-1420.39 1398.46,-1420.39"/>
<text text-anchor="start" x="1409.46" y="-1441.59" font-family="Helvetica,sans-Serif" font-weight="bold" font-size="32.00" fill="#29235c">id</text>
<text text-anchor="start" x="1434.35" y="-1441.59" font-family="Helvetica,sans-Serif" font-size="32.00" fill="#29235c"> &#160;&#160;&#160;</text>
<text text-anchor="start" x="1570.24" y="-1441.59" font-family="Helvetica,sans-Serif" font-style="italic" font-size="32.00" fill="#29235c">INTEGER</text>
<polygon fill="#e7e2dd" stroke="transparent" points="1398.46,-1360.39 1398.46,-1420.39 1723.46,-1420.39 1723.46,-1360.39 1398.46,-1360.39"/>
<polygon fill="none" stroke="#29235c" points="1398.46,-1360.39 1398.46,-1420.39 1723.46,-1420.39 1723.46,-1360.39 1398.46,-1360.39"/>
<text text-anchor="start" x="1409.46" y="-1380.59" font-family="Helvetica,sans-Serif" font-size="32.00" fill="#29235c">title &#160;&#160;&#160;</text>
<text text-anchor="start" x="1556.03" y="-1381.59" font-family="Helvetica,sans-Serif" font-style="italic" font-size="32.00" fill="#29235c">VARCHAR</text>
<polygon fill="#e7e2dd" stroke="transparent" points="1398.46,-1300.39 1398.46,-1360.39 1723.46,-1360.39 1723.46,-1300.39 1398.46,-1300.39"/>
<polygon fill="none" stroke="#29235c" points="1398.46,-1300.39 1398.46,-1360.39 1723.46,-1360.39 1723.46,-1300.39 1398.46,-1300.39"/>
<text text-anchor="start" x="1409.09" y="-1320.59" font-family="Helvetica,sans-Serif" font-size="32.00" fill="#29235c">season_start &#160;&#160;&#160;</text>
<text text-anchor="start" x="1627.29" y="-1321.59" font-family="Helvetica,sans-Serif" font-style="italic" font-size="32.00" fill="#29235c">DATE</text>
<polygon fill="#e7e2dd" stroke="transparent" points="1398.46,-1240.39 1398.46,-1300.39 1723.46,-1300.39 1723.46,-1240.39 1398.46,-1240.39"/>
<polygon fill="none" stroke="#29235c" points="1398.46,-1240.39 1398.46,-1300.39 1723.46,-1300.39 1723.46,-1240.39 1398.46,-1240.39"/>
<text text-anchor="start" x="1409.46" y="-1260.59" font-family="Helvetica,sans-Serif" font-size="32.00" fill="#29235c">season_end &#160;&#160;&#160;</text>
<text text-anchor="start" x="1627.13" y="-1261.59" font-family="Helvetica,sans-Serif" font-style="italic" font-size="32.00" fill="#29235c">DATE</text>
<polygon fill="none" stroke="#29235c" stroke-width="2" points="1396.96,-1239.39 1396.96,-1541.39 1723.96,-1541.39 1723.96,-1239.39 1396.96,-1239.39"/>
</g>
<!-- Player&#45;&gt;Position -->
<!-- Player&#45;&gt;Position -->
<g id="edge6" class="edge">
<title>Player:e&#45;&gt;Position:w</title>
<path fill="none" stroke="#29235c" stroke-width="3" d="M1160.52,-1160.39C1323.39,-1160.39 1235.02,-1438.06 1387.09,-1449.99"/>
<polygon fill="#29235c" stroke="#29235c" stroke-width="3" points="1387.33,-1453.5 1397.46,-1450.39 1387.6,-1446.51 1387.33,-1453.5"/>
<text text-anchor="middle" x="1403.68" y="-1459.99" font-family="Helvetica,sans-Serif" font-size="32.00" fill="#29235c">*</text>
<text text-anchor="middle" x="1151.63" y="-1169.99" font-family="Helvetica,sans-Serif" font-size="32.00" fill="#29235c">1</text>
</g>
<!-- Team -->
<g id="Team" class="node">
<title>Team</title>
<ellipse fill="none" stroke="black" stroke-width="0" cx="1560.46" cy="-900.39" rx="232.78" ry="257.27"/>
<polygon fill="#1d71b8" stroke="transparent" points="1398.46,-1020.39 1398.46,-1080.39 1723.46,-1080.39 1723.46,-1020.39 1398.46,-1020.39"/>
<polygon fill="none" stroke="#29235c" points="1398.46,-1020.39 1398.46,-1080.39 1723.46,-1080.39 1723.46,-1020.39 1398.46,-1020.39"/>
<text text-anchor="start" x="1457.82" y="-1041.59" font-family="Helvetica,sans-Serif" font-weight="bold" font-size="32.00" fill="#ffffff"> &#160;&#160;&#160;&#160;&#160;&#160;Team &#160;&#160;&#160;&#160;&#160;&#160;</text>
<polygon fill="#e7e2dd" stroke="transparent" points="1398.46,-960.39 1398.46,-1020.39 1723.46,-1020.39 1723.46,-960.39 1398.46,-960.39"/>
<polygon fill="none" stroke="#29235c" points="1398.46,-960.39 1398.46,-1020.39 1723.46,-1020.39 1723.46,-960.39 1398.46,-960.39"/>
<text text-anchor="start" x="1409.46" y="-981.59" font-family="Helvetica,sans-Serif" font-weight="bold" font-size="32.00" fill="#29235c">id</text>
<text text-anchor="start" x="1434.35" y="-981.59" font-family="Helvetica,sans-Serif" font-size="32.00" fill="#29235c"> &#160;&#160;&#160;</text>
<text text-anchor="start" x="1570.24" y="-981.59" font-family="Helvetica,sans-Serif" font-style="italic" font-size="32.00" fill="#29235c">INTEGER</text>
<polygon fill="#e7e2dd" stroke="transparent" points="1398.46,-900.39 1398.46,-960.39 1723.46,-960.39 1723.46,-900.39 1398.46,-900.39"/>
<polygon fill="none" stroke="#29235c" points="1398.46,-900.39 1398.46,-960.39 1723.46,-960.39 1723.46,-900.39 1398.46,-900.39"/>
<text text-anchor="start" x="1409.46" y="-920.59" font-family="Helvetica,sans-Serif" font-size="32.00" fill="#29235c">name &#160;&#160;&#160;</text>
<text text-anchor="start" x="1556.03" y="-921.59" font-family="Helvetica,sans-Serif" font-style="italic" font-size="32.00" fill="#29235c">VARCHAR</text>
<polygon fill="#e7e2dd" stroke="transparent" points="1398.46,-840.39 1398.46,-900.39 1723.46,-900.39 1723.46,-840.39 1398.46,-840.39"/>
<polygon fill="none" stroke="#29235c" points="1398.46,-840.39 1398.46,-900.39 1723.46,-900.39 1723.46,-840.39 1398.46,-840.39"/>
<text text-anchor="start" x="1409.46" y="-860.59" font-family="Helvetica,sans-Serif" font-size="32.00" fill="#29235c">city &#160;&#160;&#160;</text>
<text text-anchor="start" x="1556.03" y="-861.59" font-family="Helvetica,sans-Serif" font-style="italic" font-size="32.00" fill="#29235c">VARCHAR</text>
<polygon fill="#e7e2dd" stroke="transparent" points="1398.46,-780.39 1398.46,-840.39 1723.46,-840.39 1723.46,-780.39 1398.46,-780.39"/>
<polygon fill="none" stroke="#29235c" points="1398.46,-780.39 1398.46,-840.39 1723.46,-840.39 1723.46,-780.39 1398.46,-780.39"/>
<text text-anchor="start" x="1409.46" y="-800.59" font-family="Helvetica,sans-Serif" font-size="32.00" fill="#29235c">date_formed &#160;&#160;&#160;</text>
<text text-anchor="start" x="1627.13" y="-801.59" font-family="Helvetica,sans-Serif" font-style="italic" font-size="32.00" fill="#29235c">DATE</text>
<polygon fill="#e7e2dd" stroke="transparent" points="1398.46,-720.39 1398.46,-780.39 1723.46,-780.39 1723.46,-720.39 1398.46,-720.39"/>
<polygon fill="none" stroke="#29235c" points="1398.46,-720.39 1398.46,-780.39 1723.46,-780.39 1723.46,-720.39 1398.46,-720.39"/>
<text text-anchor="start" x="1409.07" y="-740.59" font-family="Helvetica,sans-Serif" font-size="32.00" fill="#29235c">date_ceased &#160;&#160;&#160;</text>
<text text-anchor="start" x="1627.29" y="-741.59" font-family="Helvetica,sans-Serif" font-style="italic" font-size="32.00" fill="#29235c">DATE</text>
<polygon fill="none" stroke="#29235c" stroke-width="2" points="1396.96,-719.39 1396.96,-1081.39 1723.96,-1081.39 1723.96,-719.39 1396.96,-719.39"/>
</g>
<!-- Player&#45;&gt;Team -->
<!-- Player&#45;&gt;Team -->
<g id="edge8" class="edge">
<title>Player:e&#45;&gt;Team:w</title>
<path fill="none" stroke="#29235c" stroke-width="3" d="M1160.52,-1100.39C1273.11,-1100.39 1280.97,-996.95 1387.22,-990.68"/>
<polygon fill="#29235c" stroke="#29235c" stroke-width="3" points="1387.57,-994.17 1397.46,-990.39 1387.36,-987.18 1387.57,-994.17"/>
<text text-anchor="middle" x="1403.68" y="-999.99" font-family="Helvetica,sans-Serif" font-size="32.00" fill="#29235c">*</text>
<text text-anchor="middle" x="1151.63" y="-1109.99" font-family="Helvetica,sans-Serif" font-size="32.00" fill="#29235c">1</text>
</g>
<!-- Benefit -->
<g id="Benefit" class="node">
<title>Benefit</title>
<ellipse fill="none" stroke="black" stroke-width="0" cx="319.61" cy="-1280.39" rx="236.35" ry="214.92"/>
<polygon fill="#1d71b8" stroke="transparent" points="154.61,-1370.39 154.61,-1430.39 484.61,-1430.39 484.61,-1370.39 154.61,-1370.39"/>
<polygon fill="none" stroke="#29235c" points="154.61,-1370.39 154.61,-1430.39 484.61,-1430.39 484.61,-1370.39 154.61,-1370.39"/>
<text text-anchor="start" x="207.57" y="-1391.59" font-family="Helvetica,sans-Serif" font-weight="bold" font-size="32.00" fill="#ffffff"> &#160;&#160;&#160;&#160;&#160;&#160;Benefit &#160;&#160;&#160;&#160;&#160;&#160;</text>
<polygon fill="#e7e2dd" stroke="transparent" points="154.61,-1310.39 154.61,-1370.39 484.61,-1370.39 484.61,-1310.39 154.61,-1310.39"/>
<polygon fill="none" stroke="#29235c" points="154.61,-1310.39 154.61,-1370.39 484.61,-1370.39 484.61,-1310.39 154.61,-1310.39"/>
<text text-anchor="start" x="165.61" y="-1331.59" font-family="Helvetica,sans-Serif" font-weight="bold" font-size="32.00" fill="#29235c">id</text>
<text text-anchor="start" x="190.5" y="-1331.59" font-family="Helvetica,sans-Serif" font-size="32.00" fill="#29235c"> &#160;&#160;&#160;</text>
<text text-anchor="start" x="331.39" y="-1331.59" font-family="Helvetica,sans-Serif" font-style="italic" font-size="32.00" fill="#29235c">INTEGER</text>
<polygon fill="#e7e2dd" stroke="transparent" points="154.61,-1250.39 154.61,-1310.39 484.61,-1310.39 484.61,-1250.39 154.61,-1250.39"/>
<polygon fill="none" stroke="#29235c" points="154.61,-1250.39 154.61,-1310.39 484.61,-1310.39 484.61,-1250.39 154.61,-1250.39"/>
<text text-anchor="start" x="165.61" y="-1270.59" font-family="Helvetica,sans-Serif" font-size="32.00" fill="#29235c">player_id &#160;&#160;&#160;</text>
<text text-anchor="start" x="331.5" y="-1271.59" font-family="Helvetica,sans-Serif" font-style="italic" font-size="32.00" fill="#29235c">INTEGER</text>
<polygon fill="#e7e2dd" stroke="transparent" points="154.61,-1190.39 154.61,-1250.39 484.61,-1250.39 484.61,-1190.39 154.61,-1190.39"/>
<polygon fill="none" stroke="#29235c" points="154.61,-1190.39 154.61,-1250.39 484.61,-1250.39 484.61,-1190.39 154.61,-1190.39"/>
<text text-anchor="start" x="165.61" y="-1210.59" font-family="Helvetica,sans-Serif" font-size="32.00" fill="#29235c">medical &#160;&#160;&#160;</text>
<text text-anchor="start" x="317.19" y="-1211.59" font-family="Helvetica,sans-Serif" font-style="italic" font-size="32.00" fill="#29235c">VARCHAR</text>
<polygon fill="#e7e2dd" stroke="transparent" points="154.61,-1130.39 154.61,-1190.39 484.61,-1190.39 484.61,-1130.39 154.61,-1130.39"/>
<polygon fill="none" stroke="#29235c" points="154.61,-1130.39 154.61,-1190.39 484.61,-1190.39 484.61,-1130.39 154.61,-1130.39"/>
<text text-anchor="start" x="165.15" y="-1150.59" font-family="Helvetica,sans-Serif" font-size="32.00" fill="#29235c">financial &#160;&#160;&#160;</text>
<text text-anchor="start" x="317.4" y="-1151.59" font-family="Helvetica,sans-Serif" font-style="italic" font-size="32.00" fill="#29235c">VARCHAR</text>
<polygon fill="none" stroke="#29235c" stroke-width="2" points="153.61,-1129.39 153.61,-1431.39 485.61,-1431.39 485.61,-1129.39 153.61,-1129.39"/>
</g>
<!-- Benefit&#45;&gt;Player -->
<!-- Benefit&#45;&gt;Player -->
<g id="edge10" class="edge">
<title>Benefit:e&#45;&gt;Player:w</title>
<path fill="none" stroke="#29235c" stroke-width="3" d="M485.61,-1280.39C627.31,-1280.39 659.92,-1337.61 796.51,-1340.29"/>
<polygon fill="#29235c" stroke="#29235c" stroke-width="3" points="796.49,-1343.79 806.52,-1340.39 796.56,-1336.79 796.49,-1343.79"/>
<text text-anchor="middle" x="812.75" y="-1311.59" font-family="Helvetica,sans-Serif" font-size="32.00" fill="#29235c">*</text>
<text text-anchor="middle" x="476.72" y="-1289.99" font-family="Helvetica,sans-Serif" font-size="32.00" fill="#29235c">1</text>
</g>
<!-- CareerStat -->
<g id="CareerStat" class="node">
<title>CareerStat</title>
<ellipse fill="none" stroke="black" stroke-width="0" cx="319.61" cy="-790.39" rx="319.72" ry="257.27"/>
<polygon fill="#1d71b8" stroke="transparent" points="95.61,-910.39 95.61,-970.39 543.61,-970.39 543.61,-910.39 95.61,-910.39"/>
<polygon fill="none" stroke="#29235c" points="95.61,-910.39 95.61,-970.39 543.61,-970.39 543.61,-910.39 95.61,-910.39"/>
<text text-anchor="start" x="180.02" y="-931.59" font-family="Helvetica,sans-Serif" font-weight="bold" font-size="32.00" fill="#ffffff"> &#160;&#160;&#160;&#160;&#160;&#160;CareerStat &#160;&#160;&#160;&#160;&#160;&#160;</text>
<polygon fill="#e7e2dd" stroke="transparent" points="95.61,-850.39 95.61,-910.39 543.61,-910.39 543.61,-850.39 95.61,-850.39"/>
<polygon fill="none" stroke="#29235c" points="95.61,-850.39 95.61,-910.39 543.61,-910.39 543.61,-850.39 95.61,-850.39"/>
<text text-anchor="start" x="106.61" y="-871.59" font-family="Helvetica,sans-Serif" font-weight="bold" font-size="32.00" fill="#29235c">id</text>
<text text-anchor="start" x="131.5" y="-871.59" font-family="Helvetica,sans-Serif" font-size="32.00" fill="#29235c"> &#160;&#160;&#160;</text>
<text text-anchor="start" x="390.39" y="-871.59" font-family="Helvetica,sans-Serif" font-style="italic" font-size="32.00" fill="#29235c">INTEGER</text>
<polygon fill="#e7e2dd" stroke="transparent" points="95.61,-790.39 95.61,-850.39 543.61,-850.39 543.61,-790.39 95.61,-790.39"/>
<polygon fill="none" stroke="#29235c" points="95.61,-790.39 95.61,-850.39 543.61,-850.39 543.61,-790.39 95.61,-790.39"/>
<text text-anchor="start" x="106.61" y="-810.59" font-family="Helvetica,sans-Serif" font-size="32.00" fill="#29235c">player_id &#160;&#160;&#160;</text>
<text text-anchor="start" x="390.39" y="-811.59" font-family="Helvetica,sans-Serif" font-style="italic" font-size="32.00" fill="#29235c">INTEGER</text>
<polygon fill="#e7e2dd" stroke="transparent" points="95.61,-730.39 95.61,-790.39 543.61,-790.39 543.61,-730.39 95.61,-730.39"/>
<polygon fill="none" stroke="#29235c" points="95.61,-730.39 95.61,-790.39 543.61,-790.39 543.61,-730.39 95.61,-730.39"/>
<text text-anchor="start" x="106.61" y="-750.59" font-family="Helvetica,sans-Serif" font-size="32.00" fill="#29235c">total_games &#160;&#160;&#160;</text>
<text text-anchor="start" x="390.39" y="-751.59" font-family="Helvetica,sans-Serif" font-style="italic" font-size="32.00" fill="#29235c">INTEGER</text>
<polygon fill="#e7e2dd" stroke="transparent" points="95.61,-670.39 95.61,-730.39 543.61,-730.39 543.61,-670.39 95.61,-670.39"/>
<polygon fill="none" stroke="#29235c" points="95.61,-670.39 95.61,-730.39 543.61,-730.39 543.61,-670.39 95.61,-670.39"/>
<text text-anchor="start" x="106.34" y="-690.59" font-family="Helvetica,sans-Serif" font-size="32.00" fill="#29235c">total_touchdowns &#160;&#160;&#160;</text>
<text text-anchor="start" x="390.5" y="-691.59" font-family="Helvetica,sans-Serif" font-style="italic" font-size="32.00" fill="#29235c">INTEGER</text>
<polygon fill="#e7e2dd" stroke="transparent" points="95.61,-610.39 95.61,-670.39 543.61,-670.39 543.61,-610.39 95.61,-610.39"/>
<polygon fill="none" stroke="#29235c" points="95.61,-610.39 95.61,-670.39 543.61,-670.39 543.61,-610.39 95.61,-610.39"/>
<text text-anchor="start" x="106.61" y="-630.59" font-family="Helvetica,sans-Serif" font-size="32.00" fill="#29235c">average_yards &#160;&#160;&#160;</text>
<text text-anchor="start" x="429.49" y="-631.59" font-family="Helvetica,sans-Serif" font-style="italic" font-size="32.00" fill="#29235c">FLOAT</text>
<polygon fill="none" stroke="#29235c" stroke-width="2" points="94.61,-609.39 94.61,-971.39 544.61,-971.39 544.61,-609.39 94.61,-609.39"/>
</g>
<!-- CareerStat&#45;&gt;Player -->
<!-- CareerStat&#45;&gt;Player -->
<g id="edge12" class="edge">
<title>CareerStat:e&#45;&gt;Player:w</title>
<path fill="none" stroke="#29235c" stroke-width="3" d="M544.61,-820.39C799.85,-820.39 554.65,-1326.27 796.2,-1340.1"/>
<polygon fill="#29235c" stroke="#29235c" stroke-width="3" points="796.43,-1343.61 806.52,-1340.39 796.62,-1336.61 796.43,-1343.61"/>
<text text-anchor="middle" x="800.3" y="-1349.99" font-family="Helvetica,sans-Serif" font-size="32.00" fill="#29235c">*</text>
<text text-anchor="middle" x="535.72" y="-829.99" font-family="Helvetica,sans-Serif" font-size="32.00" fill="#29235c">1</text>
</g>
<!-- HistoricTeam -->
<g id="HistoricTeam" class="node">
<title>HistoricTeam</title>
<ellipse fill="none" stroke="black" stroke-width="0" cx="319.61" cy="-3113.39" rx="239" ry="257.27"/>
<polygon fill="#1d71b8" stroke="transparent" points="152.61,-3233.39 152.61,-3293.39 486.61,-3293.39 486.61,-3233.39 152.61,-3233.39"/>
<polygon fill="none" stroke="#29235c" points="152.61,-3233.39 152.61,-3293.39 486.61,-3293.39 486.61,-3233.39 152.61,-3233.39"/>
<text text-anchor="start" x="163.15" y="-3254.59" font-family="Helvetica,sans-Serif" font-weight="bold" font-size="32.00" fill="#ffffff"> &#160;&#160;&#160;&#160;&#160;&#160;HistoricTeam &#160;&#160;&#160;&#160;&#160;&#160;</text>
<polygon fill="#e7e2dd" stroke="transparent" points="152.61,-3173.39 152.61,-3233.39 486.61,-3233.39 486.61,-3173.39 152.61,-3173.39"/>
<polygon fill="none" stroke="#29235c" points="152.61,-3173.39 152.61,-3233.39 486.61,-3233.39 486.61,-3173.39 152.61,-3173.39"/>
<text text-anchor="start" x="163.61" y="-3194.59" font-family="Helvetica,sans-Serif" font-weight="bold" font-size="32.00" fill="#29235c">id</text>
<text text-anchor="start" x="188.5" y="-3194.59" font-family="Helvetica,sans-Serif" font-size="32.00" fill="#29235c"> &#160;&#160;&#160;</text>
<text text-anchor="start" x="333.39" y="-3194.59" font-family="Helvetica,sans-Serif" font-style="italic" font-size="32.00" fill="#29235c">INTEGER</text>
<polygon fill="#e7e2dd" stroke="transparent" points="152.61,-3113.39 152.61,-3173.39 486.61,-3173.39 486.61,-3113.39 152.61,-3113.39"/>
<polygon fill="none" stroke="#29235c" points="152.61,-3113.39 152.61,-3173.39 486.61,-3173.39 486.61,-3113.39 152.61,-3113.39"/>
<text text-anchor="start" x="163.61" y="-3133.59" font-family="Helvetica,sans-Serif" font-size="32.00" fill="#29235c">name &#160;&#160;&#160;</text>
<text text-anchor="start" x="319.19" y="-3134.59" font-family="Helvetica,sans-Serif" font-style="italic" font-size="32.00" fill="#29235c">VARCHAR</text>
<polygon fill="#e7e2dd" stroke="transparent" points="152.61,-3053.39 152.61,-3113.39 486.61,-3113.39 486.61,-3053.39 152.61,-3053.39"/>
<polygon fill="none" stroke="#29235c" points="152.61,-3053.39 152.61,-3113.39 486.61,-3113.39 486.61,-3053.39 152.61,-3053.39"/>
<text text-anchor="start" x="163.61" y="-3073.59" font-family="Helvetica,sans-Serif" font-size="32.00" fill="#29235c">city &#160;&#160;&#160;</text>
<text text-anchor="start" x="319.19" y="-3074.59" font-family="Helvetica,sans-Serif" font-style="italic" font-size="32.00" fill="#29235c">VARCHAR</text>
<polygon fill="#e7e2dd" stroke="transparent" points="152.61,-2993.39 152.61,-3053.39 486.61,-3053.39 486.61,-2993.39 152.61,-2993.39"/>
<polygon fill="none" stroke="#29235c" points="152.61,-2993.39 152.61,-3053.39 486.61,-3053.39 486.61,-2993.39 152.61,-2993.39"/>
<text text-anchor="start" x="163.61" y="-3013.59" font-family="Helvetica,sans-Serif" font-size="32.00" fill="#29235c">date_formed &#160;&#160;&#160;</text>
<text text-anchor="start" x="390.28" y="-3014.59" font-family="Helvetica,sans-Serif" font-style="italic" font-size="32.00" fill="#29235c">DATE</text>
<polygon fill="#e7e2dd" stroke="transparent" points="152.61,-2933.39 152.61,-2993.39 486.61,-2993.39 486.61,-2933.39 152.61,-2933.39"/>
<polygon fill="none" stroke="#29235c" points="152.61,-2933.39 152.61,-2993.39 486.61,-2993.39 486.61,-2933.39 152.61,-2933.39"/>
<text text-anchor="start" x="163.61" y="-2953.59" font-family="Helvetica,sans-Serif" font-size="32.00" fill="#29235c">date_ceased &#160;&#160;&#160;</text>
<text text-anchor="start" x="390.28" y="-2954.59" font-family="Helvetica,sans-Serif" font-style="italic" font-size="32.00" fill="#29235c">DATE</text>
<polygon fill="none" stroke="#29235c" stroke-width="2" points="151.61,-2932.39 151.61,-3294.39 487.61,-3294.39 487.61,-2932.39 151.61,-2932.39"/>
</g>
<!-- Merchandise -->
<g id="Merchandise" class="node">
<title>Merchandise</title>
<ellipse fill="none" stroke="black" stroke-width="0" cx="983.52" cy="-1915.39" rx="308.1" ry="214.92"/>
<polygon fill="#1d71b8" stroke="transparent" points="767.52,-2005.39 767.52,-2065.39 1199.52,-2065.39 1199.52,-2005.39 767.52,-2005.39"/>
<polygon fill="none" stroke="#29235c" points="767.52,-2005.39 767.52,-2065.39 1199.52,-2065.39 1199.52,-2005.39 767.52,-2005.39"/>
<text text-anchor="start" x="829.7" y="-2026.59" font-family="Helvetica,sans-Serif" font-weight="bold" font-size="32.00" fill="#ffffff"> &#160;&#160;&#160;&#160;&#160;&#160;Merchandise &#160;&#160;&#160;&#160;&#160;&#160;</text>
<polygon fill="#e7e2dd" stroke="transparent" points="767.52,-1945.39 767.52,-2005.39 1199.52,-2005.39 1199.52,-1945.39 767.52,-1945.39"/>
<polygon fill="none" stroke="#29235c" points="767.52,-1945.39 767.52,-2005.39 1199.52,-2005.39 1199.52,-1945.39 767.52,-1945.39"/>
<text text-anchor="start" x="778.52" y="-1966.59" font-family="Helvetica,sans-Serif" font-weight="bold" font-size="32.00" fill="#29235c">id</text>
<text text-anchor="start" x="803.41" y="-1966.59" font-family="Helvetica,sans-Serif" font-size="32.00" fill="#29235c"> &#160;&#160;&#160;</text>
<text text-anchor="start" x="1046.31" y="-1966.59" font-family="Helvetica,sans-Serif" font-style="italic" font-size="32.00" fill="#29235c">INTEGER</text>
<polygon fill="#e7e2dd" stroke="transparent" points="767.52,-1885.39 767.52,-1945.39 1199.52,-1945.39 1199.52,-1885.39 767.52,-1885.39"/>
<polygon fill="none" stroke="#29235c" points="767.52,-1885.39 767.52,-1945.39 1199.52,-1945.39 1199.52,-1885.39 767.52,-1885.39"/>
<text text-anchor="start" x="778.52" y="-1905.59" font-family="Helvetica,sans-Serif" font-size="32.00" fill="#29235c">item_name &#160;&#160;&#160;</text>
<text text-anchor="start" x="1032.1" y="-1906.59" font-family="Helvetica,sans-Serif" font-style="italic" font-size="32.00" fill="#29235c">VARCHAR</text>
<polygon fill="#e7e2dd" stroke="transparent" points="767.52,-1825.39 767.52,-1885.39 1199.52,-1885.39 1199.52,-1825.39 767.52,-1825.39"/>
<polygon fill="none" stroke="#29235c" points="767.52,-1825.39 767.52,-1885.39 1199.52,-1885.39 1199.52,-1825.39 767.52,-1825.39"/>
<text text-anchor="start" x="778.47" y="-1845.59" font-family="Helvetica,sans-Serif" font-size="32.00" fill="#29235c">is_autographed &#160;&#160;&#160;</text>
<text text-anchor="start" x="1034.17" y="-1846.59" font-family="Helvetica,sans-Serif" font-style="italic" font-size="32.00" fill="#29235c">BOOLEAN</text>
<polygon fill="#e7e2dd" stroke="transparent" points="767.52,-1765.39 767.52,-1825.39 1199.52,-1825.39 1199.52,-1765.39 767.52,-1765.39"/>
<polygon fill="none" stroke="#29235c" points="767.52,-1765.39 767.52,-1825.39 1199.52,-1825.39 1199.52,-1765.39 767.52,-1765.39"/>
<text text-anchor="start" x="778.52" y="-1785.59" font-family="Helvetica,sans-Serif" font-size="32.00" fill="#29235c">price &#160;&#160;&#160;</text>
<text text-anchor="start" x="1085.4" y="-1786.59" font-family="Helvetica,sans-Serif" font-style="italic" font-size="32.00" fill="#29235c">FLOAT</text>
<polygon fill="none" stroke="#29235c" stroke-width="2" points="766.52,-1764.39 766.52,-2066.39 1200.52,-2066.39 1200.52,-1764.39 766.52,-1764.39"/>
</g>
<!-- Order -->
<g id="Order" class="node">
<title>Order</title>
<ellipse fill="none" stroke="black" stroke-width="0" cx="319.61" cy="-2538.39" rx="303.2" ry="299.63"/>
<polygon fill="#1d71b8" stroke="transparent" points="107.61,-2688.39 107.61,-2748.39 532.61,-2748.39 532.61,-2688.39 107.61,-2688.39"/>
<polygon fill="none" stroke="#29235c" points="107.61,-2688.39 107.61,-2748.39 532.61,-2748.39 532.61,-2688.39 107.61,-2688.39"/>
<text text-anchor="start" x="216.97" y="-2709.59" font-family="Helvetica,sans-Serif" font-weight="bold" font-size="32.00" fill="#ffffff"> &#160;&#160;&#160;&#160;&#160;&#160;Order &#160;&#160;&#160;&#160;&#160;&#160;</text>
<polygon fill="#e7e2dd" stroke="transparent" points="107.61,-2628.39 107.61,-2688.39 532.61,-2688.39 532.61,-2628.39 107.61,-2628.39"/>
<polygon fill="none" stroke="#29235c" points="107.61,-2628.39 107.61,-2688.39 532.61,-2688.39 532.61,-2628.39 107.61,-2628.39"/>
<text text-anchor="start" x="118.61" y="-2649.59" font-family="Helvetica,sans-Serif" font-weight="bold" font-size="32.00" fill="#29235c">id</text>
<text text-anchor="start" x="143.5" y="-2649.59" font-family="Helvetica,sans-Serif" font-size="32.00" fill="#29235c"> &#160;&#160;&#160;</text>
<text text-anchor="start" x="379.39" y="-2649.59" font-family="Helvetica,sans-Serif" font-style="italic" font-size="32.00" fill="#29235c">INTEGER</text>
<polygon fill="#e7e2dd" stroke="transparent" points="107.61,-2568.39 107.61,-2628.39 532.61,-2628.39 532.61,-2568.39 107.61,-2568.39"/>
<polygon fill="none" stroke="#29235c" points="107.61,-2568.39 107.61,-2628.39 532.61,-2628.39 532.61,-2568.39 107.61,-2568.39"/>
<text text-anchor="start" x="118.61" y="-2588.59" font-family="Helvetica,sans-Serif" font-size="32.00" fill="#29235c">fan_id &#160;&#160;&#160;</text>
<text text-anchor="start" x="379.39" y="-2589.59" font-family="Helvetica,sans-Serif" font-style="italic" font-size="32.00" fill="#29235c">INTEGER</text>
<polygon fill="#e7e2dd" stroke="transparent" points="107.61,-2508.39 107.61,-2568.39 532.61,-2568.39 532.61,-2508.39 107.61,-2508.39"/>
<polygon fill="none" stroke="#29235c" points="107.61,-2508.39 107.61,-2568.39 532.61,-2568.39 532.61,-2508.39 107.61,-2508.39"/>
<text text-anchor="start" x="118.42" y="-2528.59" font-family="Helvetica,sans-Serif" font-size="32.00" fill="#29235c">merchandise_id &#160;&#160;&#160;</text>
<text text-anchor="start" x="379.5" y="-2529.59" font-family="Helvetica,sans-Serif" font-style="italic" font-size="32.00" fill="#29235c">INTEGER</text>
<polygon fill="#e7e2dd" stroke="transparent" points="107.61,-2448.39 107.61,-2508.39 532.61,-2508.39 532.61,-2448.39 107.61,-2448.39"/>
<polygon fill="none" stroke="#29235c" points="107.61,-2448.39 107.61,-2508.39 532.61,-2508.39 532.61,-2448.39 107.61,-2448.39"/>
<text text-anchor="start" x="118.61" y="-2468.59" font-family="Helvetica,sans-Serif" font-size="32.00" fill="#29235c">order_date &#160;&#160;&#160;</text>
<text text-anchor="start" x="436.28" y="-2469.59" font-family="Helvetica,sans-Serif" font-style="italic" font-size="32.00" fill="#29235c">DATE</text>
<polygon fill="#e7e2dd" stroke="transparent" points="107.61,-2388.39 107.61,-2448.39 532.61,-2448.39 532.61,-2388.39 107.61,-2388.39"/>
<polygon fill="none" stroke="#29235c" points="107.61,-2388.39 107.61,-2448.39 532.61,-2448.39 532.61,-2388.39 107.61,-2388.39"/>
<text text-anchor="start" x="118.61" y="-2408.59" font-family="Helvetica,sans-Serif" font-size="32.00" fill="#29235c">quantity &#160;&#160;&#160;</text>
<text text-anchor="start" x="379.39" y="-2409.59" font-family="Helvetica,sans-Serif" font-style="italic" font-size="32.00" fill="#29235c">INTEGER</text>
<polygon fill="#e7e2dd" stroke="transparent" points="107.61,-2328.39 107.61,-2388.39 532.61,-2388.39 532.61,-2328.39 107.61,-2328.39"/>
<polygon fill="none" stroke="#29235c" points="107.61,-2328.39 107.61,-2388.39 532.61,-2388.39 532.61,-2328.39 107.61,-2328.39"/>
<text text-anchor="start" x="118.61" y="-2348.59" font-family="Helvetica,sans-Serif" font-size="32.00" fill="#29235c">total_price &#160;&#160;&#160;</text>
<text text-anchor="start" x="418.49" y="-2349.59" font-family="Helvetica,sans-Serif" font-style="italic" font-size="32.00" fill="#29235c">FLOAT</text>
<polygon fill="none" stroke="#29235c" stroke-width="2" points="106.11,-2327.39 106.11,-2749.39 533.11,-2749.39 533.11,-2327.39 106.11,-2327.39"/>
</g>
<!-- Order&#45;&gt;Fan -->
<!-- Order&#45;&gt;Fan -->
<g id="edge14" class="edge">
<title>Order:e&#45;&gt;Fan:w</title>
<path fill="none" stroke="#29235c" stroke-width="3" d="M533.61,-2598.39C663.06,-2598.39 685.44,-2514.97 809.24,-2510.57"/>
<polygon fill="#29235c" stroke="#29235c" stroke-width="3" points="809.59,-2514.06 819.52,-2510.39 809.46,-2507.06 809.59,-2514.06"/>
<text text-anchor="middle" x="825.75" y="-2481.59" font-family="Helvetica,sans-Serif" font-size="32.00" fill="#29235c">*</text>
<text text-anchor="middle" x="524.72" y="-2607.99" font-family="Helvetica,sans-Serif" font-size="32.00" fill="#29235c">1</text>
</g>
<!-- Order&#45;&gt;Merchandise -->
<!-- Order&#45;&gt;Merchandise -->
<g id="edge16" class="edge">
<title>Order:e&#45;&gt;Merchandise:w</title>
<path fill="none" stroke="#29235c" stroke-width="3" d="M533.61,-2538.39C800.96,-2538.39 503.48,-1989.59 756.49,-1975.66"/>
<polygon fill="#29235c" stroke="#29235c" stroke-width="3" points="756.62,-1979.15 766.52,-1975.39 756.43,-1972.16 756.62,-1979.15"/>
<text text-anchor="middle" x="772.75" y="-1984.99" font-family="Helvetica,sans-Serif" font-size="32.00" fill="#29235c">*</text>
<text text-anchor="middle" x="524.72" y="-2547.99" font-family="Helvetica,sans-Serif" font-size="32.00" fill="#29235c">1</text>
</g>
<!-- SignedMerchandise -->
<g id="SignedMerchandise" class="node">
<title>SignedMerchandise</title>
<ellipse fill="none" stroke="black" stroke-width="0" cx="319.61" cy="-1685.39" rx="306.35" ry="172.57"/>
<polygon fill="#1d71b8" stroke="transparent" points="105.61,-1745.39 105.61,-1805.39 534.61,-1805.39 534.61,-1745.39 105.61,-1745.39"/>
<polygon fill="none" stroke="#29235c" points="105.61,-1745.39 105.61,-1805.39 534.61,-1805.39 534.61,-1745.39 105.61,-1745.39"/>
<text text-anchor="start" x="116.49" y="-1766.59" font-family="Helvetica,sans-Serif" font-weight="bold" font-size="32.00" fill="#ffffff"> &#160;&#160;&#160;&#160;&#160;&#160;SignedMerchandise &#160;&#160;&#160;&#160;&#160;&#160;</text>
<polygon fill="#e7e2dd" stroke="transparent" points="105.61,-1685.39 105.61,-1745.39 534.61,-1745.39 534.61,-1685.39 105.61,-1685.39"/>
<polygon fill="none" stroke="#29235c" points="105.61,-1685.39 105.61,-1745.39 534.61,-1745.39 534.61,-1685.39 105.61,-1685.39"/>
<text text-anchor="start" x="116.61" y="-1706.59" font-family="Helvetica,sans-Serif" font-weight="bold" font-size="32.00" fill="#29235c">id</text>
<text text-anchor="start" x="141.5" y="-1706.59" font-family="Helvetica,sans-Serif" font-size="32.00" fill="#29235c"> &#160;&#160;&#160;</text>
<text text-anchor="start" x="381.39" y="-1706.59" font-family="Helvetica,sans-Serif" font-style="italic" font-size="32.00" fill="#29235c">INTEGER</text>
<polygon fill="#e7e2dd" stroke="transparent" points="105.61,-1625.39 105.61,-1685.39 534.61,-1685.39 534.61,-1625.39 105.61,-1625.39"/>
<polygon fill="none" stroke="#29235c" points="105.61,-1625.39 105.61,-1685.39 534.61,-1685.39 534.61,-1625.39 105.61,-1625.39"/>
<text text-anchor="start" x="116.61" y="-1645.59" font-family="Helvetica,sans-Serif" font-size="32.00" fill="#29235c">merchandise_id &#160;&#160;&#160;</text>
<text text-anchor="start" x="381.39" y="-1646.59" font-family="Helvetica,sans-Serif" font-style="italic" font-size="32.00" fill="#29235c">INTEGER</text>
<polygon fill="#e7e2dd" stroke="transparent" points="105.61,-1565.39 105.61,-1625.39 534.61,-1625.39 534.61,-1565.39 105.61,-1565.39"/>
<polygon fill="none" stroke="#29235c" points="105.61,-1565.39 105.61,-1625.39 534.61,-1625.39 534.61,-1565.39 105.61,-1565.39"/>
<text text-anchor="start" x="116.61" y="-1585.59" font-family="Helvetica,sans-Serif" font-size="32.00" fill="#29235c">player_id &#160;&#160;&#160;</text>
<text text-anchor="start" x="381.39" y="-1586.59" font-family="Helvetica,sans-Serif" font-style="italic" font-size="32.00" fill="#29235c">INTEGER</text>
<polygon fill="none" stroke="#29235c" stroke-width="2" points="104.11,-1564.39 104.11,-1806.39 535.11,-1806.39 535.11,-1564.39 104.11,-1564.39"/>
</g>
<!-- SignedMerchandise&#45;&gt;Player -->
<!-- SignedMerchandise&#45;&gt;Player -->
<g id="edge20" class="edge">
<title>SignedMerchandise:e&#45;&gt;Player:w</title>
<path fill="none" stroke="#29235c" stroke-width="3" d="M535.61,-1595.39C697.41,-1595.39 643.64,-1351.23 796.17,-1340.73"/>
<polygon fill="#29235c" stroke="#29235c" stroke-width="3" points="796.65,-1344.22 806.52,-1340.39 796.41,-1337.23 796.65,-1344.22"/>
<text text-anchor="middle" x="800.3" y="-1311.59" font-family="Helvetica,sans-Serif" font-size="32.00" fill="#29235c">*</text>
<text text-anchor="middle" x="526.72" y="-1604.99" font-family="Helvetica,sans-Serif" font-size="32.00" fill="#29235c">1</text>
</g>
<!-- SignedMerchandise&#45;&gt;Merchandise -->
<!-- SignedMerchandise&#45;&gt;Merchandise -->
<g id="edge18" class="edge">
<title>SignedMerchandise:e&#45;&gt;Merchandise:w</title>
<path fill="none" stroke="#29235c" stroke-width="3" d="M535.61,-1655.39C707.4,-1655.39 595.93,-1962.4 756.1,-1974.99"/>
<polygon fill="#29235c" stroke="#29235c" stroke-width="3" points="756.4,-1978.5 766.52,-1975.39 756.66,-1971.51 756.4,-1978.5"/>
<text text-anchor="middle" x="772.75" y="-1946.59" font-family="Helvetica,sans-Serif" font-size="32.00" fill="#29235c">*</text>
<text text-anchor="middle" x="526.72" y="-1664.99" font-family="Helvetica,sans-Serif" font-size="32.00" fill="#29235c">1</text>
</g>
<!-- Statistic -->
<g id="Statistic" class="node">
<title>Statistic</title>
<ellipse fill="none" stroke="black" stroke-width="0" cx="319.61" cy="-257.39" rx="290.74" ry="257.27"/>
<polygon fill="#1d71b8" stroke="transparent" points="116.61,-377.39 116.61,-437.39 523.61,-437.39 523.61,-377.39 116.61,-377.39"/>
<polygon fill="none" stroke="#29235c" points="116.61,-377.39 116.61,-437.39 523.61,-437.39 523.61,-377.39 116.61,-377.39"/>
<text text-anchor="start" x="201.86" y="-398.59" font-family="Helvetica,sans-Serif" font-weight="bold" font-size="32.00" fill="#ffffff"> &#160;&#160;&#160;&#160;&#160;&#160;Statistic &#160;&#160;&#160;&#160;&#160;&#160;</text>
<polygon fill="#e7e2dd" stroke="transparent" points="116.61,-317.39 116.61,-377.39 523.61,-377.39 523.61,-317.39 116.61,-317.39"/>
<polygon fill="none" stroke="#29235c" points="116.61,-317.39 116.61,-377.39 523.61,-377.39 523.61,-317.39 116.61,-317.39"/>
<text text-anchor="start" x="127.61" y="-338.59" font-family="Helvetica,sans-Serif" font-weight="bold" font-size="32.00" fill="#29235c">id</text>
<text text-anchor="start" x="152.5" y="-338.59" font-family="Helvetica,sans-Serif" font-size="32.00" fill="#29235c"> &#160;&#160;&#160;</text>
<text text-anchor="start" x="370.39" y="-338.59" font-family="Helvetica,sans-Serif" font-style="italic" font-size="32.00" fill="#29235c">INTEGER</text>
<polygon fill="#e7e2dd" stroke="transparent" points="116.61,-257.39 116.61,-317.39 523.61,-317.39 523.61,-257.39 116.61,-257.39"/>
<polygon fill="none" stroke="#29235c" points="116.61,-257.39 116.61,-317.39 523.61,-317.39 523.61,-257.39 116.61,-257.39"/>
<text text-anchor="start" x="127.61" y="-277.59" font-family="Helvetica,sans-Serif" font-size="32.00" fill="#29235c">player_id &#160;&#160;&#160;</text>
<text text-anchor="start" x="370.39" y="-278.59" font-family="Helvetica,sans-Serif" font-style="italic" font-size="32.00" fill="#29235c">INTEGER</text>
<polygon fill="#e7e2dd" stroke="transparent" points="116.61,-197.39 116.61,-257.39 523.61,-257.39 523.61,-197.39 116.61,-197.39"/>
<polygon fill="none" stroke="#29235c" points="116.61,-197.39 116.61,-257.39 523.61,-257.39 523.61,-197.39 116.61,-197.39"/>
<text text-anchor="start" x="127.29" y="-217.59" font-family="Helvetica,sans-Serif" font-size="32.00" fill="#29235c">games_played &#160;&#160;&#160;</text>
<text text-anchor="start" x="370.5" y="-218.59" font-family="Helvetica,sans-Serif" font-style="italic" font-size="32.00" fill="#29235c">INTEGER</text>
<polygon fill="#e7e2dd" stroke="transparent" points="116.61,-137.39 116.61,-197.39 523.61,-197.39 523.61,-137.39 116.61,-137.39"/>
<polygon fill="none" stroke="#29235c" points="116.61,-137.39 116.61,-197.39 523.61,-197.39 523.61,-137.39 116.61,-137.39"/>
<text text-anchor="start" x="127.61" y="-157.59" font-family="Helvetica,sans-Serif" font-size="32.00" fill="#29235c">touchdowns &#160;&#160;&#160;</text>
<text text-anchor="start" x="370.39" y="-158.59" font-family="Helvetica,sans-Serif" font-style="italic" font-size="32.00" fill="#29235c">INTEGER</text>
<polygon fill="#e7e2dd" stroke="transparent" points="116.61,-77.39 116.61,-137.39 523.61,-137.39 523.61,-77.39 116.61,-77.39"/>
<polygon fill="none" stroke="#29235c" points="116.61,-77.39 116.61,-137.39 523.61,-137.39 523.61,-77.39 116.61,-77.39"/>
<text text-anchor="start" x="127.61" y="-97.59" font-family="Helvetica,sans-Serif" font-size="32.00" fill="#29235c">yards &#160;&#160;&#160;</text>
<text text-anchor="start" x="370.39" y="-98.59" font-family="Helvetica,sans-Serif" font-style="italic" font-size="32.00" fill="#29235c">INTEGER</text>
<polygon fill="none" stroke="#29235c" stroke-width="2" points="115.11,-76.39 115.11,-438.39 524.11,-438.39 524.11,-76.39 115.11,-76.39"/>
</g>
<!-- Statistic&#45;&gt;Player -->
<!-- Statistic&#45;&gt;Player -->
<g id="edge22" class="edge">
<title>Statistic:e&#45;&gt;Player:w</title>
<path fill="none" stroke="#29235c" stroke-width="3" d="M524.61,-287.39C763.42,-287.39 569.93,-1310.78 796.5,-1339.76"/>
<polygon fill="#29235c" stroke="#29235c" stroke-width="3" points="796.32,-1343.26 806.52,-1340.39 796.76,-1336.27 796.32,-1343.26"/>
<text text-anchor="middle" x="812.75" y="-1349.99" font-family="Helvetica,sans-Serif" font-size="32.00" fill="#29235c">*</text>
<text text-anchor="middle" x="515.72" y="-258.59" font-family="Helvetica,sans-Serif" font-size="32.00" fill="#29235c">1</text>
</g>
</g>
</svg>
